PathFileType	4	(X/Y/Z)	Patient4_TMGait_0pt7_01_left_37.trc.trc
DataRate	CameraRate	NumFrames	NumMarkers	Units	OrigDataRate	OrigDataStartFrame	OrigNumFrames
82.840236686391	82.840236686391	6	33	mm	82.840236686391	124	       141
Frame#	Time	Sacral			L.Shoulder			Chest			R.Shoulder			Neck			R.ASIS			L.ASIS			R.Thigh.Superior			R.Thigh.Lateral			R.Thigh.Inferior			R.Patella			L.Thigh.Superior			L.Thigh.Lateral			L.Thigh.Inferior			L.Patella			L.Shank.Superior			L.Shank.Lateral			L.Shank.Inferior			R.Shank.Superior			R.Shank.Lateral			R.Shank.Inferior			R.Heel			R.Midfoot.Superior			R.Midfoot.Lateral			R.Toe			L.Heel			L.Midfoot.Lateral			L.Midfoot.Superior			L.Toe			L.Elbow			L.Wrist			R.Elbow			R.Wrist			
		X1	Y1	Z1	X2	Y2	Z2	X3	Y3	Z3	X4	Y4	Z4	X5	Y5	Z5	X6	Y6	Z6	X7	Y7	Z7	X8	Y8	Z8	X9	Y9	Z9	X10	Y10	Z10	X11	Y11	Z11	X12	Y12	Z12	X13	Y13	Z13	X14	Y14	Z14	X15	Y15	Z15	X16	Y16	Z16	X17	Y17	Z17	X18	Y18	Z18	X19	Y19	Z19	X20	Y20	Z20	X21	Y21	Z21	X22	Y22	Z22	X23	Y23	Z23	X24	Y24	Z24	X25	Y25	Z25	X26	Y26	Z26	X27	Y27	Z27	X28	Y28	Z28	X29	Y29	Z29	X30	Y30	Z30	X31	Y31	Z31	X32	Y32	Z32	X33	Y33	Z33	

124	44.224785714286	843.749308326859	1000.592189869449	515.272634861630	1011.227904976406	1419.932901997423	322.223949793359	1130.613380633599	1343.040789549285	468.903104544485	1074.079033255960	1420.926748985902	651.210317348760	1035.554380709830	1479.275322751950	478.431249848589	1068.597225819107	931.366186276413	625.924010560303	1046.956470604947	937.783426297731	349.427732290493	1054.111836794003	716.716855629037	602.976571129203	940.083045286466	630.096897894111	661.254299666879	997.183657012834	560.284428651915	583.354236402410	971.517115405708	476.512607354007	585.988799783849	1121.541132983386	763.722604338754	384.516847064909	1076.416972476080	632.298008648913	305.235443948562	1184.427527193595	580.213984352826	364.738159558469	1212.337633639359	515.016566121553	362.251296045007	1198.195273472260	441.513045691095	352.819708783242	1133.559428737333	308.907666431897	308.683958721427	1226.237383914339	213.971540147276	360.784026591258	928.821496228770	395.364461867282	591.366593831633	839.910904242383	304.880119611179	651.696948358857	865.557989390793	205.342535674892	585.609835972954	708.897287241206	50.665119106302	556.360202985813	885.335280894718	97.895969725947	583.760697784790	796.137633480578	39.414692796787	625.039471888919	1003.450278608976	38.822233033318	602.101090726833	1148.816232491488	38.537058637440	406.297531230924	1217.865201986271	42.602121966982	321.743986910463	1291.574552507129	115.873916119501	339.962861193604	1422.844957912340	81.365508262395	306.319978891457	814.422831007623	1137.982407048992	229.003188826483	750.343324039340	884.295055530624	268.260430708781	1231.984712378260	1121.319551136501	752.272298920883	1430.399230353804	1234.982027966670	653.910890435014	
125	44.236857142857	845.310349325937	999.187388633237	512.245853695189	1011.873733950117	1418.647879554963	319.834785287569	1130.873569015502	1342.608043026588	467.290957346202	1072.851131116933	1420.229260844119	649.252053192591	1035.124388477244	1478.364109111691	476.118498430122	1069.629076114749	929.934213623441	624.271221802159	1049.554757262205	936.597773458276	348.027484899048	1054.629591590422	715.159481712404	601.422951859554	939.992658940982	629.095795736919	659.507862455067	996.978813825958	558.719361633050	581.952994739653	970.341247930578	474.531230816942	584.469411896174	1123.770854975892	761.298874285755	383.523283861288	1076.875032387931	630.107262545449	305.401766850596	1184.465966774711	577.584243492039	365.202642809279	1210.801665180088	511.476821228383	363.577505790382	1196.156353673418	437.901408101618	353.914016843557	1129.994485709666	306.126509234620	309.805818704474	1220.741980360945	210.140979424431	362.923139826957	926.292350188289	393.871797595495	590.153997487393	835.802747072805	305.176965463387	650.888157242522	859.507450938022	205.011226603230	585.191244213450	700.572677326302	52.041257284663	556.622484195002	877.283518623811	98.075086026511	583.900301794744	787.783388230057	39.964658542336	625.255856937224	995.059710261461	38.572090754161	602.188379782651	1139.316302337535	37.763672186219	408.719438358808	1208.362352722500	40.185589622279	323.960032833394	1284.474966367992	110.696913457080	342.777710688153	1414.793817595504	72.044169422976	308.730492107750	816.377893958608	1136.032504110052	226.306570933997	753.740159317008	881.910309497348	266.423445022781	1231.353751014031	1120.712026458985	750.701708197361	1428.986034614187	1236.154206768524	652.701006057925	
126	44.248928571429	846.775129434736	998.095854872745	509.209606235987	1012.728415387362	1417.551599820110	317.346160388836	1131.316996046558	1342.310031716330	465.590290555934	1071.886486652963	1419.771258473790	647.202213610885	1034.977845189570	1477.691748870848	473.651473452605	1070.648055558859	928.673191060381	622.443970134434	1052.003751526123	935.781682815911	346.485847816130	1055.279433274604	713.815457282981	599.736145901550	940.127880498013	628.229506425504	657.630632160183	997.132747639785	557.290795542974	580.496352960822	969.607592079284	472.554540268740	582.981251472593	1126.085317183831	759.597013039433	382.452633654938	1077.888463308350	628.795457824275	305.217942618977	1184.885737602296	575.771554104314	365.596045921177	1209.690707377202	508.700072629169	364.737393286244	1194.518477214395	434.964380884037	354.789614215024	1126.919328001783	304.150388878215	310.137020348939	1215.258301488070	206.924044347629	364.613839544910	924.073942905972	392.506612336487	588.951326749461	831.900307752559	305.720024279905	650.045417006028	853.650685286177	204.896952874936	584.825391187277	692.309719107458	53.822095248398	556.924901277283	869.398246359325	98.320368612015	584.091828403981	779.482009452843	40.675032087559	625.482357367866	986.699161974177	38.315359778895	602.257441029491	1129.492175423660	37.369651756714	410.247242830961	1198.781794428981	38.343998368191	325.509509720695	1277.045983482930	106.296296965351	345.182908558526	1406.566428947977	63.853004027772	311.127235052036	819.250967369445	1133.574280809057	223.368762834074	758.387671901982	878.898831142796	263.894945206642	1229.796263310080	1119.628961010732	749.471243730692	1427.253587448603	1236.050446146018	651.838742079060	
127	44.261000000000	848.121004983666	997.386086758966	506.189587713663	1013.772579828646	1416.718360476272	314.798727604900	1131.937656782123	1342.189551301063	463.808955300562	1071.236307089473	1419.603894565066	645.078667335661	1035.135325493142	1477.312412303059	471.071763760214	1071.626460996759	927.667776798426	620.440455581207	1054.248437684280	935.394961757034	344.766541857965	1056.020947134888	712.764325782924	597.923626040603	940.471827923834	627.565151362828	655.656256709865	997.644552473912	556.071243598600	579.023850817913	969.362725219710	470.629772199609	581.625554218231	1128.413977412346	758.696399185880	381.279081150514	1079.410961404742	628.384593887272	304.629979137268	1185.620206413694	574.772779150915	365.801917870951	1208.978883056316	506.730127906846	365.579698396708	1193.265692934882	432.751169636144	355.359730443162	1124.340512201291	302.984382889804	309.711728000911	1209.901908903351	204.401372250430	365.805710389211	922.185425152543	391.332887446212	587.830222154358	828.219850823475	306.578851882416	649.210387320085	848.029832867733	205.066843216921	584.561225610590	684.147064489606	56.100721132311	557.277482747883	861.731360978129	98.644459372452	584.363668873107	771.255801504924	41.586596891876	625.722847213529	978.366630980333	38.061364669276	602.299774180535	1119.736837657431	37.271888020252	410.992404803574	1189.413891606570	37.076056134292	326.426075659980	1269.451392478609	102.842745503218	347.062874433758	1398.347540718679	57.218753348535	313.256163674524	823.010345158117	1130.715380969075	220.235996044392	764.297034036135	875.362531423531	260.653006194613	1227.311736546757	1118.117021775603	748.553940363941	1425.286951832005	1234.611025183630	651.330683070476	
128	44.273071428571	849.344317905048	997.101126554869	503.194421445811	1014.974808456796	1416.209385907007	312.230511168170	1132.718812280282	1342.284967174230	461.954928191452	1070.924756481121	1419.762789576542	642.898595405155	1035.592276435990	1477.263776209006	468.425288291974	1072.545632875422	926.989063717344	618.258595262920	1056.261120387401	935.471792833309	342.833172162801	1056.833872743404	712.073021717259	595.995938290446	941.038353837022	627.150750611396	653.623544893828	998.547148475649	555.119638139996	577.577520061179	969.687086213468	468.795631434526	580.510346262689	1130.689073614250	758.601525057689	379.967362298457	1081.318596253669	628.796066075829	303.635088714361	1186.550838806099	574.488947476838	365.715445374250	1208.572585310607	505.507613906231	366.002042296657	1192.299125720820	431.219189266944	355.590433937528	1122.138997561131	302.549633094103	308.666069679984	1204.678965077251	202.562219600744	366.520194104355	920.681629544140	390.395839465170	586.865492847087	824.813978707055	307.812338957836	648.427009564947	842.709705364269	205.577828378659	584.447074902877	676.141920248551	58.978570591242	557.690352290240	854.339528224701	99.059563591499	584.744490424661	763.135050496979	42.751470869928	625.981094031328	970.057152450735	37.819028189654	602.307799546413	1110.279220767127	37.376750412865	411.124586378659	1180.393071717881	36.321374552103	326.805103673214	1261.769802109527	100.369884801093	348.386696533309	1390.215059174758	52.305942880185	314.948479397115	827.607532772467	1127.576657699683	216.955405271436	771.484456555748	871.424988203824	256.687699021381	1223.897998048532	1116.250587858580	747.907766591571	1423.150743950262	1231.767362890181	651.177807974058	
129	44.285142857143	850.455254108903	997.251693555418	500.212966150636	1016.295239795253	1416.065771648203	309.672490306694	1133.634026822352	1342.625155935233	460.035750966908	1070.942934098225	1420.261089445883	640.677413363617	1036.318084978069	1477.561772562759	465.756855368019	1073.396470104598	926.684764285521	615.898357574705	1058.043532131316	936.014615337081	340.658391899984	1057.727623108593	711.786730972335	593.970706940908	941.875931585149	627.007260743101	651.572509994441	999.910983145907	554.473129822484	576.198544344360	970.691790547908	467.078873668656	579.735278729162	1132.846952013015	759.225178630315	378.471331579654	1083.398206736044	629.850648695605	302.281464931930	1187.506006356384	574.734267790138	365.263834832846	1208.311765131817	504.887006148543	365.975001789199	1191.448092991207	430.252534108180	355.502806445811	1120.108315633105	302.698183956954	307.208797322826	1199.520717349312	201.321735411301	366.837942362610	919.656020201360	389.717580825291	586.125574424875	821.774828597238	309.464464779829	647.735458668478	837.778647303134	206.473930382081	584.524442902388	668.373738255221	62.566572296585	558.172482811760	847.283082507718	99.578685600522	585.258864456119	755.159560516809	44.237949595533	626.260047680425	961.763134801370	37.594677051455	602.276256572693	1101.207946264971	37.594757254819	410.835625381694	1171.735206606163	35.981009814784	326.778695702390	1254.026599608975	98.794556375464	349.200140957424	1382.176086007395	49.038868821138	316.134961208317	832.981237523632	1124.282547655617	213.568956934445	779.973346180413	867.225614720492	252.003553925433	1219.553800048693	1114.124254933950	747.477764683694	1420.876359462385	1227.440767851317	651.376908510264	
